<mxfile host="app.diagrams.net" modified="2020-12-29T13:37:16.068Z" agent="5.0 (X11; Linux x86_64) AppleWebKit/537.36 (KHTML, like Gecko) Chrome/87.0.4280.88 Safari/537.36" etag="t29mgt9VrSP93VG-dV92" version="14.1.2" type="github">
  <diagram id="TX30ASu2ZnS7qER7bVjc" name="Page-1">
    <mxGraphModel dx="1364" dy="806" grid="1" gridSize="10" guides="1" tooltips="1" connect="1" arrows="1" fold="1" page="1" pageScale="1" pageWidth="827" pageHeight="1169" math="0" shadow="0">
      <root>
        <mxCell id="0" />
        <mxCell id="1" parent="0" />
        <mxCell id="710BHg3NUPHEm2lGmqkF-1" value="" style="endArrow=none;dashed=1;html=1;dashPattern=1 3;strokeWidth=3;strokeColor=#007FFF;" edge="1" parent="1">
          <mxGeometry width="50" height="50" relative="1" as="geometry">
            <mxPoint x="400" y="240" as="sourcePoint" />
            <mxPoint x="400" y="30" as="targetPoint" />
          </mxGeometry>
        </mxCell>
        <mxCell id="710BHg3NUPHEm2lGmqkF-2" value="Europa" style="text;html=1;strokeColor=none;fillColor=none;align=center;verticalAlign=middle;whiteSpace=wrap;rounded=0;fontSize=16;fontStyle=1" vertex="1" parent="1">
          <mxGeometry x="230" y="30" width="40" height="20" as="geometry" />
        </mxCell>
        <mxCell id="710BHg3NUPHEm2lGmqkF-3" value="Ásia" style="text;html=1;strokeColor=none;fillColor=none;align=center;verticalAlign=middle;whiteSpace=wrap;rounded=0;fontStyle=1;fontSize=16;" vertex="1" parent="1">
          <mxGeometry x="530" y="30" width="40" height="20" as="geometry" />
        </mxCell>
        <mxCell id="710BHg3NUPHEm2lGmqkF-7" style="edgeStyle=orthogonalEdgeStyle;rounded=0;orthogonalLoop=1;jettySize=auto;html=1;curved=1;strokeColor=#007FFF;dashed=1;" edge="1" parent="1" source="710BHg3NUPHEm2lGmqkF-4" target="710BHg3NUPHEm2lGmqkF-6">
          <mxGeometry relative="1" as="geometry" />
        </mxCell>
        <mxCell id="710BHg3NUPHEm2lGmqkF-4" value="Utilizador" style="html=1;verticalLabelPosition=bottom;align=center;labelBackgroundColor=#ffffff;verticalAlign=top;strokeWidth=2;shadow=0;dashed=0;shape=mxgraph.ios7.icons.user;strokeColor=#007FFF;" vertex="1" parent="1">
          <mxGeometry x="435" y="130" width="70" height="70" as="geometry" />
        </mxCell>
        <mxCell id="710BHg3NUPHEm2lGmqkF-6" value="&lt;b&gt;&lt;font color=&quot;#007fff&quot;&gt;Balanceador de carga&lt;/font&gt;&lt;/b&gt;" style="rhombus;whiteSpace=wrap;html=1;strokeWidth=2;fontSize=10;strokeColor=#007FFF;" vertex="1" parent="1">
          <mxGeometry x="660" y="75" width="100" height="80" as="geometry" />
        </mxCell>
        <mxCell id="710BHg3NUPHEm2lGmqkF-8" value="&lt;b&gt;&lt;font color=&quot;#007fff&quot;&gt;Balanceador de carga&lt;/font&gt;&lt;/b&gt;" style="rhombus;whiteSpace=wrap;html=1;strokeWidth=2;fontSize=10;strokeColor=#007FFF;" vertex="1" parent="1">
          <mxGeometry x="280" y="125" width="100" height="80" as="geometry" />
        </mxCell>
        <mxCell id="710BHg3NUPHEm2lGmqkF-9" value="&lt;font size=&quot;1&quot; color=&quot;#007fff&quot;&gt;&lt;b style=&quot;font-size: 11px&quot;&gt;Sock-shop&lt;br&gt;Front-end&lt;/b&gt;&lt;/font&gt;" style="ellipse;whiteSpace=wrap;html=1;aspect=fixed;strokeWidth=2;strokeColor=#007FFF;" vertex="1" parent="1">
          <mxGeometry x="170" y="85" width="70" height="70" as="geometry" />
        </mxCell>
      </root>
    </mxGraphModel>
  </diagram>
</mxfile>
